<?xml version="1.0" standalone="no"?><!DOCTYPE svg PUBLIC "-//W3C//DTD SVG 1.1//EN" "http://www.w3.org/Graphics/SVG/1.1/DTD/svg11.dtd"><svg t="1547824078354" class="icon" style="" viewBox="0 0 1024 1024" version="1.1" xmlns="http://www.w3.org/2000/svg" p-id="617" xmlns:xlink="http://www.w3.org/1999/xlink" width="200" height="200"><defs><style type="text/css"></style></defs><path d="M226.306143 62.983208c-1.044472 1.256951-0.972793 1.535988 0.386557 1.535988 0.913913 0 1.661428-0.691195 1.661427-1.535988 0-0.844794-0.174079-1.535988-0.386557-1.535989-0.212478 0-0.959993 0.691195-1.661427 1.535989m237.596938 334.003255c-0.01792 0.665595 0.693755 1.932786 1.579508 2.815978 0.883193 0.885753 2.150384 1.597428 2.815979 1.579509 0.663035-0.01792 0.414717-0.494076-0.552956-1.057272-0.967673-0.563196-2.222063-1.817586-2.785259-2.78526-0.563196-0.967673-1.039352-1.215991-1.057272-0.552955" fill="#0000FF" p-id="618"></path><path d="M290.738299 3.507174c-1.515509 1.651188-0.440317 3.530214 1.180152 2.063344 1.085432-0.983033 1.971185-1.866226 1.971185-1.966065 0-0.176639-2.992618-0.271358-3.151337-0.097279m-20.420966 11.373994c-1.743347 2.099184-0.624635 3.033577 1.31327 1.095672 0.844794-0.844794 1.894386-1.210871 2.334702-0.816634 0.437757 0.396797 0.465917 0.143359 0.06144-0.560635-0.980473-1.702387-2.137584-1.615348-3.709412 0.281597m-17.704828 14.261653c-0.816634 0.816634-1.845746 1.162231-2.286062 0.767995-0.437757-0.396797-0.488956-0.181759-0.1152 0.473596 0.376317 0.655355 0.127999 1.37727-0.552955 1.605108-0.893433 0.296958-0.916473 0.606715-0.08448 1.121272 0.655355 0.407037 2.096624-0.614395 3.348455-2.370543 2.327023-3.269095 2.170864-4.078049-0.309758-1.597428M246.785989 34.884858c0 0.596476-0.532476 0.755194-1.182711 0.353278-0.732155-0.453117-0.903673-0.281598-0.450557 0.450556 0.401917 0.650235 0.215038 1.182711-0.414717 1.182711s-0.855034 0.468476-0.501756 1.041913c0.803834 1.30047 2.216943 0.468476 3.604453-2.122224 0.732155-1.36959 0.734714-1.991665 0.00512-1.991665a1.075192 1.075192 0 0 0-1.059832 1.085431m701.475699 0.05632c-0.05376 2.204143 3.96285 7.226826 5.178841 6.476751a1.134071 1.134071 0 0 0 0.358398-1.561588 1.144311 1.144311 0 0 0-1.571829-0.368637c-0.535036 0.330238-1.635828-0.929273-2.449901-2.800619-0.811514-1.868786-1.495029-2.6547-1.515509-1.745907M240.754674 41.34369c-0.913913 1.100792-0.931833 1.676787-0.074239 2.209263 1.671667 1.031672 3.742692-1.262071 2.375662-2.6291-0.739834-0.739834-1.446389-0.611835-2.301423 0.419837M958.089454 47.623323c2.367982 4.04221 2.419182 4.103649 2.419182 2.844138 0-0.593916-0.949753-2.168304-2.109424-3.499493l-2.106864-2.416622 1.797106 3.071977m7.621063 12.930463c-0.107519 2.175984 2.557421 4.469726 3.471334 2.990057 0.366077-0.588796 0.148479-1.072632-0.481276-1.072632s-0.816634-0.532476-0.414717-1.182711c0.432637-0.698875 0.284158-0.906233-0.363517-0.504316-0.601595 0.371197-1.32863 0.097279-1.612788-0.611835-0.332798-0.824314-0.547836-0.688635-0.599036 0.381437m5.711317 9.863606c-0.250878 0.417277 0.161279 1.32863 0.916473 2.027505s1.579508 0.929273 1.832947 0.511996c0.250878-0.417277-0.161279-1.32863-0.916473-2.027505s-1.579508-0.929273-1.832947-0.511996m-97.760546 26.936118c0.238078 0.709115 1.213431 1.405429 2.168303 1.546228 2.344942 0.343037 2.183664-0.276478-0.430076-1.676787-1.687027-0.901113-2.071024-0.872953-1.738227 0.130559M307.457534 111.878841c0.140799 0.703995-0.319998 1.164791-1.023992 1.023992-0.703995-0.140799-1.27999 0.204798-1.279991 0.767994 0 1.38751 1.37215 1.29023 2.867179-0.204798 1.495029-1.495029 1.592308-2.867178 0.204798-2.867178-0.563196 0-0.908793 0.575996-0.767994 1.27999M104.707055 167.624983c0.985593 0.255998 1.791987 0.893433 1.791986 1.415669 0 0.522236 0.747514 0.949753 1.661428 0.949753 1.35935 0 1.431029-0.279038 0.386557-1.535988-0.701435-0.844794-2.255343-1.482229-3.453414-1.41823-1.730547 0.094719-1.809906 0.215038-0.386557 0.588796m400.329797 169.480969c-0.675835 0.675835-1.228791 0.849914-1.228791 0.386557 0-0.463357-0.686075-0.273918-1.525748 0.422397-1.492469 1.241591-1.228791 3.082217 0.445437 3.082217 0.463357 0 1.599988-1.151991 2.521581-2.559981 1.817586-2.772459 1.735667-3.279335-0.212479-1.33119m212.414407 12.595105c2.367982 4.04221 2.419182 4.103649 2.419182 2.844139 0-0.593916-0.949753-2.168304-2.109424-3.499494l-2.106864-2.416622 1.797106 3.071977m-251.454114 19.363695c-0.908793 1.095672-0.911353 1.623028-0.0128 2.181104 1.103352 0.680955 2.956778-1.090552 2.992618-2.856939 0.0256-1.262071-1.697267-0.870393-2.979818 0.675835m-1.018872 27.791152c-0.092159 1.205751 1.971185 3.532774 3.130856 3.532773 0.414717 0 0.688635-0.898553 0.606716-1.996785-0.107519-1.423349-0.501756-1.704947-1.37471-0.980473-0.831994 0.691195-1.39007 0.591356-1.753587-0.307197-0.291838-0.727035-0.565756-0.839674-0.609275-0.248318m29.613858 31.144726a1.075192 1.075192 0 0 0 1.085431 1.059832c0.596476 0 0.755194 0.532476 0.353278 1.182711-0.432637 0.698875-0.284158 0.906233 0.363517 0.504316 0.601595-0.371197 1.32863-0.097279 1.612788 0.611836 0.319998 0.788474 0.550396 0.606715 0.599035-0.471037 0.04608-0.965113-0.839674-2.250223-1.966065-2.851818-1.38751-0.742394-2.047985-0.755194-2.047984-0.03584m-101.39572 88.636775c-1.743347 2.099184-0.624635 3.033577 1.31327 1.095672 0.844794-0.844794 1.894386-1.210871 2.334703-0.816634 0.437757 0.396797 0.465917 0.143359 0.061439-0.560636-0.980473-1.702387-2.137584-1.615348-3.709412 0.281598m-3.051497 4.643805c0 0.596476-0.532476 0.755194-1.182711 0.353278-0.732155-0.453117-0.903673-0.281598-0.450557 0.450556 0.401917 0.650235 0.243198 1.182711-0.353277 1.182711a1.075192 1.075192 0 0 0-1.085432 1.059833c0 0.721915 0.616955 0.729595 1.927665 0.028159 2.140144-1.144311 3.688932-4.159969 2.135024-4.159968-0.545276 0-0.990713 0.488956-0.990712 1.085431m422.967708 21.002083c0.657915 0.793594 1.635828 1.169911 2.173423 0.839674 1.192951-0.737274 0.307198-1.743347-1.807346-2.053105-1.233911-0.181759-1.31071 0.074239-0.366077 1.213431m3.292135 12.728224c0 2.534381 0.199679 3.571173 0.442877 2.303983a14.492051 14.492051 0 0 0 0-4.607965c-0.243198-1.26719-0.442877-0.230398-0.442877 2.303982m-3.855331 11.251116c-0.373757 0.606715 0.115199 0.742394 1.218551 0.340477 1.669107-0.609275 1.648628-0.437757-0.202239 1.802227l-2.047984 2.478061 2.303982-1.950705c1.26719-1.072632 2.303983-2.339822 2.303983-2.815979 0-1.203191-2.813419-1.087992-3.576293 0.145919m-505.30949 176.277718c1.812466 3.479014 2.101744 3.630053 1.681907 0.878073-0.204798-1.34399-0.949753-2.63678-1.656307-2.872298-1.026552-0.343037-1.031672 0.05888-0.0256 1.994225M862.205373 761.857966c0 0.563196-0.345597 0.908793-0.767994 0.767994-0.422397-0.140799-0.844794 0.153599-0.936953 0.652795-0.092159 0.501756-0.783354 1.33119-1.535988 1.848307-1.021432 0.698875-0.880633 0.857594 0.558076 0.627195 2.158064-0.350717 5.716437-4.920283 3.832291-4.920283-0.632315 0-1.149431 0.460797-1.149432 1.023992M215.042227 768.513916c1.479669 1.784307 3.071977 2.017265 3.071977 0.450557 0-0.596476-0.460797-0.798714-1.023992-0.450557-0.563196 0.348157-1.023992 0.145919-1.023992-0.450556 0-0.596476-0.517116-1.085432-1.149432-1.085432-0.793594 0-0.755194 0.473596 0.125439 1.535988m736.171119 42.75168c-0.875513 2.867178-0.642555 3.839971 0.663035 2.757099 0.793594-0.657915 1.190391-1.605108 0.880633-2.104304-0.529916-0.857594-1.37215-1.213431-1.543668-0.652795m-3.845091 6.399952c0.202238 1.223671-0.174079 1.945585-0.939513 1.791986-0.703995-0.140799-1.27999 0.204798-1.279991 0.767994 0 1.525749 1.620468 1.236471 3.107817-0.555516 1.044472-1.256951 1.052152-1.830386 0.04096-2.815978-1.003512-0.975353-1.200631-0.803834-0.929273 0.811514m-682.7392 16.583555c0.151039 1.016312 0.611835 1.771507 1.026553 1.676788 1.556468-0.350717 1.615348-1.108472 0.181758-2.298863-1.203191-0.998393-1.428469-0.883193-1.208311 0.622075m657.211071 3.041257c-0.709115 0.286718-1.781747 1.438709-2.380782 2.557421-0.972793 1.820146-0.875513 1.922546 0.916473 0.962553 1.505269-0.803834 4.229088-4.572126 2.979818-4.119009-0.122879 0.04352-0.803834 0.314878-1.515509 0.599035m-641.631028 6.271953c-0.511996 0.844794 1.418229 2.65726 3.225576 3.031018 1.710067 0.353277 1.561588-0.03584-0.773114-2.035185-1.108472-0.949753-2.211823-1.39775-2.452462-0.995833m-148.676004 52.525686c-0.389117 0.629755 0.194559 2.045425 1.29535 3.146217 1.635828 1.635828 2.001905 1.710067 2.001905 0.407037 0-0.875513-0.412157-1.592308-0.913913-1.592308-0.504316 0-0.650235-0.430077-0.325118-0.952313a1.136631 1.136631 0 0 0-0.381437-1.553909c-0.532476-0.330238-1.28767-0.084479-1.676787 0.545276m7.838661 18.959218c-0.230398 2.470381 2.273263 7.682502 4.175328 8.701375 1.825266 0.975353 1.909746 0.875513 0.880634-1.047032-0.624635-1.167351-1.515509-2.124784-1.976305-2.124784-0.463357 0-1.32095-1.497589-1.907186-3.327975-0.588796-1.830386-1.116152-2.821099-1.172471-2.201584m7.715782 11.161516c0.325118 0.844794 1.28767 1.535988 2.142704 1.535989 1.262071 0 1.31327-0.286718 0.276478-1.535989-0.701435-0.844794-1.663988-1.535988-2.140144-1.535988-0.478716 0-0.601595 0.691195-0.279038 1.535988m725.613758 9.41049c0.985593 0.255998 1.791987 0.893433 1.791986 1.415669 0 0.522236 0.747514 0.949753 1.661428 0.949753 1.35935 0 1.431029-0.279038 0.386557-1.535988-0.701435-0.844794-2.255343-1.482229-3.453414-1.41823-1.730547 0.094719-1.809906 0.215038-0.386557 0.588796m-828.665785 5.34524c0 0.476156 0.691195 1.438709 1.535988 2.140144 1.249271 1.036792 1.535988 0.985593 1.535989-0.276478 0-0.855034-0.691195-1.817586-1.535989-2.142704-0.844794-0.322558-1.535988-0.199679-1.535988 0.279038m20.915043 36.643565c0.151039 1.016312 0.611835 1.771507 1.026552 1.676787 1.556468-0.350717 1.615348-1.108472 0.181759-2.298862-1.203191-0.998393-1.428469-0.883193-1.208311 0.622075M893.007062 1008.896113c-0.04608 0.985593-0.744954 1.791987-1.556468 1.791987s-1.758707 0.455677-2.101744 1.011192c-0.366077 0.593916 0.140799 0.770554 1.218551 0.427517 1.34143-0.424957 1.144311 0.0384-0.714235 1.697267-1.407989 1.254391-1.896946 2.071024-1.085432 1.812467 2.193904-0.698875 5.503959-5.555158 4.871644-7.147467-0.381437-0.954873-0.578556-0.829434-0.632316 0.407037M107.011037 1012.736084c-0.599036 0.970233 0.092159 1.413109 1.791987 1.144312 0.422397-0.06656 0.767994 0.417277 0.767994 1.075192 0 0.655355 0.240638 0.952313 0.535036 0.657915 0.742394-0.742394-0.560636-3.901411-1.607668-3.901411-0.471036 0-1.139191 0.460797-1.487349 1.023992m779.002158 5.37596c0.140799 0.703995-0.319998 1.164791-1.023992 1.023992-0.703995-0.140799-1.27999 0.204798-1.279991 0.767995 0 1.38751 1.37215 1.29023 2.867179-0.204799 1.495029-1.495029 1.592308-2.867178 0.204798-2.867178-0.563196 0-0.908793 0.575996-0.767994 1.27999" fill="#0055FF" p-id="619"></path><path d="M306.177544 1.543668c0 1.190391-1.34655 1.535988-5.964756 1.535989-5.007322 0-6.346192 0.404477-8.322497 2.506221-1.607668 1.712627-3.694052 2.60606-6.576591 2.815979-3.230696 0.238078-4.462047 0.852474-5.235161 2.61374-0.619515 1.413109-1.907186 2.303983-3.327975 2.303983-1.27487 0-2.316783 0.488956-2.316782 1.085432 0 0.596476-0.460797 0.798714-1.023993 0.450557-0.563196-0.348157-1.023992-0.197119-1.023992 0.335357 0 0.532476-1.669107 1.758707-3.706852 2.72638-2.040305 0.967673-3.93725 2.63422-4.216288 3.701732-0.319998 1.221111-1.413109 1.940465-2.949098 1.940465-1.34143 0-2.439662 0.488956-2.439662 1.085432 0 0.596476-0.371197 0.852474-0.826874 0.573436-0.455677-0.281598-1.722867 0.719355-2.815979 2.227183-1.093112 1.505269-4.142049 4.920283-6.771149 7.585223-2.63166 2.66494-4.940763 5.667797-5.130201 6.67131-0.191999 1.003512-1.37983 1.973745-2.641901 2.152944-1.635828 0.232958-2.293743 1.021432-2.293742 2.7443s-0.657915 2.511341-2.293743 2.744299c-1.32351 0.189439-2.457582 1.192951-2.68286 2.373102-0.215038 1.123832-1.487349 3.061737-2.826219 4.303328-1.515509 1.402869-2.437102 3.409894-2.437102 5.30684 0 2.383342-0.504316 3.120617-2.303982 3.376615-1.966065 0.279038-2.350062 1.041912-2.616301 5.191641-0.281598 4.390367-0.555516 4.863964-2.815979 4.863963-2.321903 0-2.503661 0.371197-2.503661 5.119962 0 2.815979-0.427517 5.119962-0.949753 5.119962-2.959338 0-4.170209 3.425254-4.170208 11.781031 0 7.656903-0.215038 8.629695-2.045425 9.210811-3.235816 1.026552-3.141096-9.914806-2.844139 321.533589l0.281598 316.413626 2.303983 0.327678c2.211823 0.314878 2.303983 0.729595 2.303983 10.495921 0 8.995773 0.207358 10.170804 1.791986 10.183604 1.141751 0.01024 1.36959 0.289278 0.624635 0.767994-0.844794 0.545276-0.773114 1.116152 0.255998 2.073585 0.783354 0.724475 1.497589 0.954873 1.589749 0.511996 0.092159-0.445437 0.437757 1.725427 0.767994 4.823004 0.486396 4.541406 1.047032 5.826516 2.905578 6.64315 1.694707 0.742394 2.303983 1.871346 2.303983 4.267488 0 4.584926 0.936953 6.497231 3.182056 6.497231 1.34655 0 1.937905 0.727035 1.937905 2.388462 0 1.31583 0.345597 2.736619 0.767995 3.159016 0.422397 0.422397 0.778234 1.30559 0.791034 1.960946 0.0128 0.657915 0.934393 1.036792 2.047984 0.842233 1.113592-0.194559 1.717747-0.04096 1.34143 0.343038-1.32863 1.35167 1.33887 6.66619 3.343335 6.66619 1.39519 0 1.948145 0.727035 1.948146 2.559981 0 2.047985 0.511996 2.559981 2.55998 2.55998s2.559981 0.511996 2.559981 2.559981 0.511996 2.559981 2.559981 2.559981 2.559981 0.511996 2.559981 2.559981 0.511996 2.559981 2.559981 2.559981 2.559981 0.511996 2.55998 2.55998c0 2.027505 0.517116 2.559981 2.488302 2.559981 1.797107 0 2.580461 0.637435 2.815979 2.293743 0.189439 1.33375 1.185271 2.449902 2.375662 2.66494 2.66494 0.483836 5.749717 3.240936 4.991962 4.462047-0.322558 0.527356 0.03328 0.870393 0.793594 0.765434 4.935643-0.675835 7.014347 0.097279 7.014348 2.61374 0 2.004465 0.522236 2.559981 2.403822 2.559981 2.69566 0 7.183306 3.381735 6.026195 4.541406-0.412157 0.412157-0.289278 0.655355 0.273917 0.542716 5.509079-1.111032 11.591593 0.184319 12.195749 2.59582 0.606715 2.414062 1.036792 2.559981 7.549383 2.559981 6.179794 0 7.011787 0.243198 7.915461 2.303983l1.011192 2.303983 285.604258 0.250878c157.080422 0.138239 285.31242-0.0384 284.961703-0.391677-2.268143-2.268143 1.663988-4.467166 7.9897-4.467167 6.330833 0 10.257843-2.199024 7.98458-4.472286-0.355837-0.355837 1.620468-0.652795 4.387807-0.660475 6.799309-0.02048 9.35673-0.829434 9.966006-3.153897 0.327678-1.256951 1.410549-1.953265 3.041257-1.953265 1.425909 0 3.146216-0.929273 3.94237-2.127344 0.775674-1.167351 3.020777-2.452462 4.989403-2.851819 2.62654-0.535036 3.663333-1.32863 3.903971-2.995177 0.255998-1.779187 1.006072-2.265583 3.496933-2.265583 1.745907 0 2.903018-0.268798 2.575341-0.596476-0.629755-0.629755 2.833899-4.523486 4.02429-4.523486 0.381437 0 2.275823-1.727987 4.211168-3.839971s3.811811-3.827171 4.170209-3.809251c0.355837 0.01536 0.504316-0.606715 0.325118-1.38239-0.176639-0.778234 0.117759-1.141751 0.655355-0.808954 0.540156 0.335357 1.771507-0.596476 2.736619-2.071024 0.965113-1.471989 1.244151-2.362862 0.622076-1.978866-0.619515 0.383997-1.128952 0.430077-1.128952 0.1024 0-0.330238 1.151991-1.036792 2.559981-1.571829 1.566708-0.596476 2.559981-1.776627 2.559981-3.046377 0-1.39007 0.673275-2.073584 2.047984-2.073584s2.047985-0.683515 2.047985-2.073585c0-1.239031 0.977913-2.444782 2.431982-2.997737 1.884146-0.716795 2.588141-1.966065 3.125736-5.542359 0.555516-3.701732 1.139191-4.684765 2.943978-4.961242 1.236471-0.189439 2.129904-0.929273 1.981425-1.643508-0.312318-1.495029 1.210871-4.592606 3.665893-7.459784 1.758707-2.053105 1.817586-2.280943 2.078704-7.833541 0.099839-2.142704 0.680955-3.327975 1.630708-3.327975 2.206703 0 2.900458-1.743347 3.389415-8.524736 0.340477-4.720605 0.957433-6.561231 2.6547-7.935941l2.209263-1.789426 0.245758-320.857754c0.250878-329.26985 0.273918-326.983788-3.471334-330.071125-0.683515-0.563196-1.474549-4.01917-1.758707-7.679942l-0.581115-7.485384c-0.03584-0.455677-0.435197-0.599036-0.883194-0.322557-2.309103 1.425909-3.443174-1.809906-4.231648-12.07543-0.0384-0.514556-0.355837-0.652795-0.706555-0.304638-1.075192 1.075192-3.461094-2.060785-3.476453-4.569565-0.01536-2.173424-1.981425-6.61499-2.017265-4.556766-0.04352 2.544621-2.923498-2.017265-3.484134-5.521879-0.478716-2.987498-1.139191-4.075489-2.480622-4.075489-1.149431 0-2.293743-1.28255-3.074537-3.438054-0.683515-1.889266-2.158064-4.264928-3.276775-5.278681-1.118712-1.011192-2.035185-2.488301-2.035185-3.279335 0-0.788474-0.424957-1.175031-0.942073-0.855034-1.077752 0.668155-5.201881-4.183009-5.201881-6.115794 0-0.706555-0.775674-1.221111-1.720307-1.144311-1.026552 0.087039-2.019825-0.893433-2.457581-2.416622-0.407037-1.407989-0.783354-2.204143-0.839674-1.768947-0.168959 1.29791-5.222361-2.449902-5.222361-3.870691 0-1.525749-2.252783-2.552301-5.603798-2.552301-1.669107 0-2.554861-0.752634-3.007977-2.55998-0.463357-1.845746-1.33375-2.559981-3.112937-2.559981-1.781747 0-2.559981-0.642555-2.795499-2.303983-0.179199-1.26719-1.018872-2.350062-1.863666-2.403822a488.290738 488.290738 0 0 0-4.331487-0.255998c-2.065905-0.115199-2.964458-0.826874-3.440615-2.71614-0.565756-2.255343-1.190391-2.559981-5.23516-2.55998-3.658213 0-4.697565-0.396797-5.102042-1.953266-0.616955-2.355182-3.166696-3.133416-10.306483-3.153896-4.090849-0.01024-5.37596-0.381437-5.37596-1.548789 0-1.36191-32.995593-1.535988-290.813818-1.535988S306.177544 0.181759 306.177544 1.543668m557.563818 90.111325c0 1.751027 0.785914 2.094064 5.401559 2.357742 3.097577 0.179199 5.145561 0.727035 4.799964 1.28767-0.332798 0.537596 0.115199 1.251831 0.990713 1.589748 0.878073 0.335357 1.29791 1.095672 0.931833 1.687028-0.366077 0.591356-0.225278 0.803834 0.309758 0.471036 1.30047-0.801274 3.94493 0.898553 3.97309 2.552301 0.0128 0.744954 0.903673 1.164791 2.047985 0.965113 1.113592-0.194559 1.717747-0.04096 1.341429 0.343037-1.32863 1.35167 1.33887 6.66619 3.343335 6.66619 1.679347 0 1.958385 0.811514 2.027505 5.887956 0.04096 3.238376 0.271358 6.69435 0.511996 7.679942 0.238078 0.985593 0.599036 2.598381 0.803834 3.583974 0.207358 0.995833 1.116152 1.658868 2.042865 1.492468 1.543668-0.276478 1.651188 22.71983 1.420789 299.005758-0.222718 265.137211-0.424957 299.305275-1.784306 299.305275-0.844794 0-1.582068 0.691195-1.638388 1.535989-0.05376 0.844794-0.227838 1.881586-0.383997 2.303982-0.663035 1.791987-0.803834 3.128297-0.924153 8.839614-0.107519 5.099482-0.442877 6.108114-2.170864 6.558671-1.123832 0.294398-2.362862 1.38495-2.757099 2.424302-1.034232 2.739179-5.759957 7.237066-8.0665 7.674822-1.118712 0.215038-2.124784 1.37727-2.309102 2.67262-0.281598 1.971185-0.949753 2.293743-4.746205 2.293743-3.583973 0-4.735964 0.483836-6.095314 2.559981l-1.676788 2.55998H597.959035c-249.708207 0-263.206986-0.092159-263.834181-1.791986-1.011192-2.741739-2.396142-3.294695-8.261058-3.312615-4.812764-0.0128-5.506519-0.294398-6.374352-2.575341-0.604155-1.592308-1.774067-2.559981-3.092457-2.559981-1.443829 0-2.022385-0.565756-1.817586-1.781746 0.179199-1.049592-0.639995-2.201583-1.983985-2.7955-2.455022-1.087992-4.771804-6.174674-3.681253-8.084419 0.366077-0.639995 0.286718-0.819194-0.176639-0.401917-3.663333 3.320295-4.090849-71.385065-3.586533-626.163624 0-2.111984 0.417277-3.724772 0.924153-3.583973 0.506876 0.140799 1.049592-0.204798 1.205751-0.767994 0.158719-0.563196 0.921593-1.658868 1.697268-2.437102 0.778234-0.775674 1.164791-2.058225 0.862713-2.846698-0.340477-0.885753 0.422397-1.807346 1.989105-2.403822 1.548788-0.588796 2.539501-1.774067 2.539501-3.038698 0-1.907186 1.715187-2.6931 4.607966-2.109424 0.563196 0.112639 0.693755-0.122879 0.291837-0.524796-2.035185-2.035185 1.431029-4.559326 6.256594-4.559326 4.075489 0 5.27868-0.447997 6.863308-2.56254l1.925106-2.562541 264.714814 0.258558C862.973368 89.607008 863.741362 89.612128 863.741362 91.654993M65.795347 168.090899c-0.703995 0.706555-1.27999 1.858546-1.279991 2.557421 0 0.765434-1.735667 1.39775-4.351967 1.587188-3.320295 0.240638-4.584926 0.847354-5.335 2.554861-0.542716 1.233911-1.843186 2.465262-2.892779 2.74174-1.049592 0.273918-2.150384 1.428469-2.447341 2.5651-0.299518 1.136631-1.530869 2.206703-2.74174 2.380782-1.838066 0.261118-2.250223 1.100792-2.508781 5.112282-0.261118 4.04733-0.660475 4.848604-2.559981 5.119962l-2.250223 0.319997-0.258558 364.904783-0.255998 364.904784 2.559981 2.014705c2.260463 1.779187 2.562541 2.792939 2.562541 8.629695 0 4.933083 0.389117 6.763469 1.535988 7.201226 0.844794 0.325118 1.535988 1.259511 1.535989 2.076144 0 0.819194 0.460797 1.203191 1.023992 0.855034 0.629755-0.389117 1.023992 1.31839 1.023992 4.436447 0 4.554206 0.261118 5.135321 2.559981 5.711317 2.350062 0.591356 3.269095 3.246056 2.72894 7.882181-0.0384 0.340477 1.059832 1.226231 2.439661 1.963505 1.564148 0.837114 2.511341 2.245103 2.511342 3.732452 0 1.861106 0.560636 2.385902 2.55998 2.385902 2.137584 0 2.559981 0.486396 2.559981 2.946538 0 1.620468 0.686075 3.514854 1.525749 4.211168 0.837114 0.696315 1.223671 1.753587 0.855033 2.347503-0.412157 0.665595-0.0384 0.839674 0.970233 0.453116 1.157111-0.442877 1.735667 0.03328 1.960945 1.617908 0.176639 1.236471 1.35679 2.70334 2.623981 3.258856 1.26719 0.555516 2.303983 1.815026 2.303982 2.795499 0 1.039352 1.044472 2.047985 2.501102 2.414062 1.523189 0.381437 2.62398 1.492469 2.815978 2.836458 0.189439 1.33375 1.169911 2.329583 2.478062 2.516462 1.190391 0.168959 2.67774 1.436149 3.307495 2.815978 0.931833 2.042865 1.889266 2.506221 5.189081 2.506222 3.415014 0 4.095969 0.358397 4.372447 2.303982 0.209918 1.479669 1.151991 2.421742 2.631661 2.631661 1.474549 0.209918 2.303983 1.034232 2.303982 2.288622 0 1.469429 1.149431 2.252783 4.574686 3.112937 2.926058 0.737274 4.797404 1.850866 5.189081 3.087337 0.494076 1.553908 1.612788 1.935345 5.665238 1.935345 4.272608 0 5.050842 0.299518 5.050842 1.937906 0 2.524141 1.919986 3.182056 9.30041 3.182056 4.702685 0 6.059475 0.343037 6.059475 1.535989 0 1.36191 41.927366 1.535988 371.197216 1.535988s371.197216-0.174079 371.197216-1.535988c0-0.954873 0.967673-1.535988 2.55998-1.535989 1.407989 0 2.559981-0.460797 2.559981-1.023992 0-0.563196 0.345597-0.908793 0.767994-0.767995 0.422397 0.140799 0.767994-0.04352 0.767995-0.409596 0-0.366077 1.612788-2.142704 3.583973-3.947491 1.994225-1.825266 2.764779-3.013097 1.738227-2.67518-1.085432 0.358397-1.587188 0.191999-1.218551-0.404477 0.343037-0.555516 1.29023-1.011192 2.101744-1.011192a1.471989 1.471989 0 0 0 1.474549-1.461749c0-1.784307 2.941418-4.884443 4.00893-4.223969 1.121272 0.693755 1.198071-0.191999 1.781747-20.410726 0.517116-17.904506-0.337917-26.127164-2.72126-26.127164-0.517116 0-1.438709-1.843186-2.045425-4.09597-0.793594-2.946538-1.646068-4.095969-3.041257-4.095969-1.228791 0-2.055665-0.842234-2.263023-2.303983-0.209918-1.479669-1.151991-2.421742-2.6291-2.63166-1.436149-0.202238-2.536941-1.262071-2.928618-2.815979-0.483836-1.932786-1.30047-2.488301-3.645413-2.488301-1.753587 0-2.754539-0.430077-2.388462-1.023993 0.348157-0.563196-0.04608-1.023992-0.878073-1.023992s-1.702387-0.575996-1.937906-1.27999c-0.340477-1.018872-72.915933-1.33375-357.391239-1.541109-348.871623-0.253438-356.979083-0.304638-357.578119-2.193903-0.629755-1.986545-3.366375-3.138536-7.518663-3.164137-1.31071-0.00768-2.081264-0.468476-1.730547-1.036792 0.348157-0.563196-0.084479-1.023992-0.962553-1.023992-0.878073 0-1.597428-0.447997-1.597428-0.998393 0-0.547836-1.36447-1.702387-3.033577-2.5651-2.094064-1.082872-3.415014-2.846699-4.270048-5.701078-0.814074-2.71614-1.704947-3.95261-2.598381-3.609573-0.867833 0.332798-1.39519-0.302078-1.451509-1.751026a76.269508 76.269508 0 0 0-0.583675-5.854676 93.091142 93.091142 0 0 1-0.627196-5.818837c-0.074239-1.231351-0.578556-2.152944-1.123831-2.047984-3.747812 0.709115-3.688932 6.425552-3.704292-355.832212-0.0128-318.814889-0.163839-351.050167-1.638388-352.524716-0.890873-0.890873-2.065905-3.228136-2.606061-5.191641-0.680955-2.465262-1.584628-3.571173-2.915818-3.571173-1.221111 0-2.047985-0.844794-2.255343-2.303983-0.209918-1.479669-1.151991-2.421742-2.6291-2.63166-1.436149-0.202238-2.536941-1.262071-2.928618-2.815979-0.483836-1.932786-1.30047-2.488301-3.645413-2.488301-1.753587 0-2.754539-0.430077-2.388462-1.023993 0.348157-0.563196-0.04608-1.023992-0.878073-1.023992s-1.702387-0.575996-1.935346-1.27999c-0.619515-1.861106-38.63523-2.444782-40.450256-0.619516m439.461664 170.336003c-1.548788 2.362862-2.298863 2.570221-9.295291 2.570221-6.69947 0-7.882181 0.291838-9.868726 2.437101-1.241591 1.33887-3.179496 2.61118-4.303327 2.826219-1.159671 0.220158-2.183664 1.35679-2.365423 2.61886-0.197119 1.38239-1.167351 2.352622-2.549741 2.549741-1.262071 0.181759-2.398702 1.205751-2.61886 2.365423-0.215038 1.123832-1.487349 3.061737-2.826219 4.303327-1.776627 1.646068-2.437102 3.356135-2.437101 6.318033 0 5.416919-0.837114 7.301065-3.246056 7.301065-1.889266 0-1.991665 0.696315-1.774067 12.241828 0.225278 12.167589 1.034232 14.67637 4.113889 12.774305 0.527356-0.327678 0.890873-0.212478 0.811514 0.250878-1.085432 6.241233 0.279038 13.468059 2.6547 14.064534 1.871346 0.471036 2.559981 1.32863 2.559981 3.184616 0 2.024945 0.517116 2.539501 2.559981 2.539501 2.047985 0 2.559981 0.511996 2.559981 2.559981 0 1.976305 0.527356 2.559981 2.316782 2.559981 1.420789 0 2.70846 0.890873 3.327975 2.303983 0.816634 1.858546 2.081264 2.411502 6.545871 2.859498 4.195809 0.419837 5.900756 1.103352 7.037388 2.815979l1.502708 2.260463h97.591588c102.793469 0 100.812044 0.081919 100.812044-4.170209 0-0.522236 2.270703-0.949753 5.048282-0.949753 4.426207 0 5.089242-0.279038 5.37596-2.263023 0.179199-1.244151 1.249271-2.511341 2.375662-2.815979 3.005417-0.811514 8.703935-6.351312 8.703935-8.460736 0-1.103352 0.762874-1.820146 1.937905-1.820146 1.259511 0 2.181104-0.983033 2.634221-2.815979 0.383997-1.548788 1.694707-3.883491 2.913258-5.186521 4.05757-4.346847 3.299815-37.053162-0.857594-37.053162-1.034232 0-1.507829-1.100792-1.507828-3.499494 0-4.671965-0.890873-6.73275-2.926058-6.776269-0.949753-0.02304-2.572781-1.914866-3.729893-4.351968-1.530869-3.225576-2.936298-4.602845-5.555158-5.450199-1.973745-0.637435-3.863011-2.091504-4.318687-3.327975-0.724475-1.958385-1.587188-2.193904-8.04602-2.193903-5.954515 0-7.349705-0.317438-7.892421-1.791987-0.363517-0.985593-1.157111-2.124784-1.761267-2.531821-0.604155-0.407037-42.211523-0.757754-92.458826-0.778234l-91.360595-0.0384-1.684467 2.570221m-102.140674 172.212468c-0.376317 0.373757-0.683515 1.525749-0.683515 2.559981 0 1.31839-0.760314 1.876466-2.559981 1.876466-1.407989 0-2.559981 0.488956-2.559981 1.085432 0 0.596476-0.360957 0.860154-0.803834 0.586235-0.440317-0.271358-1.707507 0.663035-2.815979 2.078705a68.671485 68.671485 0 0 1-4.316127 4.904923c-1.26719 1.28255-2.303983 3.146216-2.303983 4.144609 0 0.998393-1.151991 2.879978-2.559981 4.185569l-2.559981 2.373102v19.93201c0 20.746084 0.281598 23.172946 2.69566 23.172946 1.29023 0 3.210216 5.399 2.6419 7.423945-0.120319 0.422397 0.901113 0.767994 2.270703 0.767994 1.802226 0 2.580461 0.637435 2.815979 2.303983 0.204798 1.446389 1.149431 2.421742 2.534381 2.61886 1.34399 0.191999 2.455022 1.29279 2.836459 2.815979 0.542716 2.160624 1.218551 2.501101 4.974043 2.501101 3.525094 0 4.536286 0.435197 5.355479 2.303983l1.011193 2.303983h375.805181l0.327678-2.303983c0.279038-1.973745 0.947193-2.303983 4.659165-2.303983 4.633565 0 6.965708-1.420789 6.087634-3.709412-0.371197-0.965113 0.263678-1.410549 2.017265-1.410549 1.873906 0 2.72894-0.683515 3.199976-2.559981 0.412157-1.643508 1.36447-2.559981 2.65214-2.559981 1.26719 0 2.237423-0.908793 2.626541-2.462702 0.340477-1.35423 1.441269-2.67774 2.444781-2.941417 1.29023-0.337917 2.040305-1.937905 2.562541-5.473239 0.407037-2.746859 1.505269-5.880276 2.442222-6.960588 1.594868-1.843186 1.584628-1.922546-0.145919-1.290231-1.103352 0.401917-1.592308 0.266238-1.218551-0.340477 0.343037-0.555516 1.29023-1.011192 2.101744-1.011192 1.546228 0 1.707507-1.011192 1.630708-10.239924-0.094719-11.507114-0.171519-12.615585-0.829434-11.95511-1.241591 1.241591-3.422694-1.576948-3.422694-4.426207 0-4.771804-1.218551-9.218491-2.524141-9.218491-0.683515 0-1.840626-1.809906-2.570221-4.019169-0.919033-2.785259-2.071024-4.206048-3.747812-4.628446-1.33119-0.332798-2.421742-1.27231-2.421742-2.088944 0-1.983985-3.233256-3.599333-7.208906-3.599333-2.339822 0-3.097577-0.394237-2.708459-1.410549 0.296958-0.775674 0.0256-1.927666-0.606716-2.559981-1.26975-1.26975-385.860786-1.733107-387.125416-0.465917" fill="#1296DB" p-id="620"></path></svg>