<?xml version="1.0" standalone="no"?><!DOCTYPE svg PUBLIC "-//W3C//DTD SVG 1.1//EN" "http://www.w3.org/Graphics/SVG/1.1/DTD/svg11.dtd"><svg t="1528426418955" class="icon" style="" viewBox="0 0 1024 1024" version="1.1" xmlns="http://www.w3.org/2000/svg" p-id="9673" xmlns:xlink="http://www.w3.org/1999/xlink" width="200" height="200"><defs><style type="text/css"></style></defs><path d="M102.4 744.727273 139.636364 744.727273l0-139.636364L102.4 605.090909c0 0-55.854545 0-55.854545 69.818182S102.4 744.727273 102.4 744.727273z" p-id="9674" fill="#dbdbdb"></path><path d="M102.4 325.818182 139.636364 325.818182 139.636364 186.181818 102.4 186.181818C102.4 186.181818 46.545455 186.181818 46.545455 256S102.4 325.818182 102.4 325.818182z" p-id="9675" fill="#dbdbdb"></path><path d="M102.4 512 139.636364 512 139.636364 372.363636 102.4 372.363636C102.4 372.363636 46.545455 372.363636 46.545455 442.181818S102.4 512 102.4 512z" p-id="9676" fill="#dbdbdb"></path><path d="M102.4 930.909091 139.636364 930.909091l0-139.636364L102.4 791.272727c0 0-55.854545 0-55.854545 69.818182S102.4 930.909091 102.4 930.909091z" p-id="9677" fill="#dbdbdb"></path><path d="M186.181818 139.264l0 838.562909C186.181818 1003.333818 207.080727 1024 233.099636 1024l604.392727 0C863.371636 1024 884.363636 1002.821818 884.363636 977.826909L884.363636 139.264C884.363636 113.757091 863.464727 93.090909 837.445818 93.090909L233.099636 93.090909C207.173818 93.090909 186.181818 114.269091 186.181818 139.264zM837.818182 139.636364l0 837.818182L232.727273 977.454545 232.727273 139.636364 837.818182 139.636364z" p-id="9678" fill="#dbdbdb"></path><path d="M977.454545 930.909091 977.454545 0 279.272727 0 279.272727 43.659636 934.912 43.659636 934.912 930.909091Z" p-id="9679" fill="#dbdbdb"></path></svg>