<?xml version="1.0" standalone="no"?><!DOCTYPE svg PUBLIC "-//W3C//DTD SVG 1.1//EN" "http://www.w3.org/Graphics/SVG/1.1/DTD/svg11.dtd"><svg t="1547824138202" class="icon" style="" viewBox="0 0 1024 1024" version="1.1" xmlns="http://www.w3.org/2000/svg" p-id="1487" xmlns:xlink="http://www.w3.org/1999/xlink" width="200" height="200"><defs><style type="text/css"></style></defs><path d="M107.054545 162.909091c13.963636-18.618182 27.927273-32.581818 41.89091-46.545455 9.309091-13.963636 23.272727-23.272727 32.581818-37.236363l27.927272-23.272728c4.654545-9.309091 13.963636-13.963636 23.272728-18.618181 13.963636-4.654545 23.272727-9.309091 37.236363-9.309091h488.727273c9.309091 0 23.272727 4.654545 32.581818 4.654545 13.963636 4.654545 27.927273 13.963636 37.236364 23.272727 4.654545 9.309091 13.963636 18.618182 23.272727 27.927273 9.309091 9.309091 18.618182 23.272727 27.927273 32.581818 9.309091 9.309091 23.272727 27.927273 32.581818 41.890909l-805.236364 4.654546z m0 0" fill="#00A0E9" p-id="1488"></path><path d="M1019.345455 339.781818c0-23.272727-4.654545-46.545455-18.618182-60.509091-18.618182-18.618182-46.545455-27.927273-69.818182-27.927272H97.745455c-27.927273-4.654545-55.854545 4.654545-74.472728 23.272727-13.963636 18.618182-23.272727 41.890909-23.272727 65.163636v162.909091c0 23.272727 9.309091 46.545455 23.272727 60.509091 18.618182 18.618182 41.890909 27.927273 69.818182 23.272727h837.818182c23.272727 0 51.2-9.309091 69.818182-23.272727 13.963636-18.618182 23.272727-37.236364 23.272727-60.509091V339.781818z m-451.49091 107.054546H456.145455c-9.309091 0-13.963636 0-18.618182-4.654546-9.309091-9.309091-13.963636-13.963636-13.963637-23.272727s4.654545-13.963636 9.309091-18.618182c4.654545-4.654545 13.963636-9.309091 18.618182-9.309091h111.709091c9.309091 0 13.963636 0 18.618182 9.309091 4.654545 4.654545 9.309091 13.963636 9.309091 18.618182 4.654545 18.618182-4.654545 27.927273-23.272728 27.927273z m0 0" fill="#95E0F9" p-id="1489"></path><path d="M996.072727 684.218182c-18.618182-18.618182-46.545455-27.927273-69.818182-23.272727H97.745455c-27.927273-4.654545-55.854545 4.654545-74.472728 23.272727-13.963636 18.618182-23.272727 41.890909-23.272727 65.163636v153.6c0 27.927273 9.309091 51.2 27.927273 69.818182 18.618182 13.963636 41.890909 23.272727 65.163636 23.272727h828.509091c27.927273 0 51.2-9.309091 69.818182-23.272727 18.618182-13.963636 27.927273-37.236364 27.927273-60.509091V744.727273c4.654545-18.618182-4.654545-41.890909-23.272728-60.509091z m-409.6 162.909091c-4.654545 4.654545-13.963636 9.309091-18.618182 9.309091H451.490909c-9.309091 0-13.963636-4.654545-18.618182-9.309091-4.654545-4.654545-9.309091-13.963636-9.309091-18.618182 0-9.309091 4.654545-13.963636 9.309091-18.618182 4.654545-4.654545 13.963636-9.309091 18.618182-9.309091h111.709091c9.309091 0 13.963636 4.654545 18.618182 9.309091 4.654545 4.654545 9.309091 13.963636 9.309091 18.618182 4.654545 9.309091 0 13.963636-4.654546 18.618182z m0 0" fill="#00A0E9" p-id="1490"></path></svg>