<?xml version="1.0" standalone="no"?><!DOCTYPE svg PUBLIC "-//W3C//DTD SVG 1.1//EN" "http://www.w3.org/Graphics/SVG/1.1/DTD/svg11.dtd"><svg t="1547824346913" class="icon" style="" viewBox="0 0 1024 1024" version="1.1" xmlns="http://www.w3.org/2000/svg" p-id="5646" xmlns:xlink="http://www.w3.org/1999/xlink" width="200" height="200"><defs><style type="text/css"></style></defs><path d="M552.287232 138.922667v-48.3328c0-6.007467 3.959467-10.0352 9.966933-10.0352h54.203734a40.277333 40.277333 0 0 0 0-80.554667H407.698432a40.277333 40.277333 0 0 0 0 80.554667h54.203733c6.007467 0 10.0352 4.027733 10.0352 10.0352v48.3328c0 6.007467-4.027733 10.0352-8.055466 10.0352-206.711467 24.1664-367.274667 203.3664-361.335467 416.768 4.096 211.421867 174.6944 388.573867 387.4816 400.657066A409.531733 409.531733 0 0 0 921.609899 555.690667c0-209.373867-156.603733-382.5664-359.355734-406.7328-7.9872 0-10.0352-6.007467-10.0352-10.0352zM512.009899 885.828267A329.864533 329.864533 0 0 1 182.964565 555.690667c0-181.248 146.500267-330.205867 329.181867-330.205867a329.864533 329.864533 0 0 1 329.250133 330.205867c-2.048 181.179733-148.548267 330.1376-329.250133 330.1376z" fill="#0780ED" p-id="5647"></path><path d="M551.399765 351.095467A40.004267 40.004267 0 0 0 512.009899 391.509333v187.733334c0 22.254933 17.749333 40.413867 39.389866 40.413866h149.504a40.004267 40.004267 0 0 0 39.389867-40.3456 40.004267 40.004267 0 0 0-39.3216-40.413866H610.313899c-11.741867 0-19.6608-8.055467-19.6608-20.206934V391.509333a40.004267 40.004267 0 0 0-39.3216-40.413866z" fill="#0780ED" p-id="5648"></path></svg>