<?xml version="1.0" standalone="no"?><!DOCTYPE svg PUBLIC "-//W3C//DTD SVG 1.1//EN" "http://www.w3.org/Graphics/SVG/1.1/DTD/svg11.dtd"><svg t="1547824463271" class="icon" style="" viewBox="0 0 1024 1024" version="1.1" xmlns="http://www.w3.org/2000/svg" p-id="9437" xmlns:xlink="http://www.w3.org/1999/xlink" width="200" height="200"><defs><style type="text/css"></style></defs><path d="M308.736 242.432h406.528a22.528 22.528 0 0 0 22.528-22.528V152.064a22.528 22.528 0 0 0-22.528-22.528h-112.896a90.368 90.368 0 1 0-180.736 0h-112.896a22.528 22.528 0 0 0-22.528 22.528v67.84a22.528 22.528 0 0 0 22.528 22.528z" fill="#4393F9" p-id="9438"></path><path d="M805.632 152.064h-22.528v67.84a67.84 67.84 0 0 1-67.84 67.84H308.736a67.84 67.84 0 0 1-67.84-67.84V152.064h-22.528A90.368 90.368 0 0 0 128 242.432v677.632a90.368 90.368 0 0 0 90.368 90.368h587.264A90.368 90.368 0 0 0 896 920.064V242.432a90.368 90.368 0 0 0-90.368-90.368z m-96.768 422.4L486.4 800.512a22.528 22.528 0 0 1-16.128 6.656 22.528 22.528 0 0 1-16.128-6.912l-139.264-143.872a22.528 22.528 0 1 1 32.512-31.232l121.856 128 207.36-209.408a22.528 22.528 0 0 1 32 31.744z" fill="#4393F9" p-id="9439"></path></svg>